<?xml version="1.0" encoding="UTF-8"?>
<svg xmlns="http://www.w3.org/2000/svg" width="1800" height="1080" viewBox="0 0 1800 1080" role="img" aria-labelledby="title description">
  <title id="title">Overall Platform Flow</title>
  <desc id="description">How applicants, providers, administrators, and the system connect</desc>
  <defs>
    <filter id="shadow" x="-20%" y="-20%" width="140%" height="140%"><feDropShadow dx="0" dy="3" stdDeviation="4" flood-color="#0b1930" flood-opacity="0.08"/></filter>
    <marker id="arrow" viewBox="0 0 10 10" refX="9" refY="5" markerWidth="7" markerHeight="7" orient="auto-start-reverse"><path d="M 0 0 L 10 5 L 0 10 z" fill="#8193a9"/></marker>
  </defs>
  <rect width="100%" height="100%" fill="#ffffff"/>
  <rect width="100%" height="118" fill="#0b1930"/>
  <rect width="18" height="118" fill="#f5b700"/>
  <text x="58" y="52" text-anchor="start" fill="#ffffff" font-family="Aptos, Segoe UI, sans-serif" font-size="30" font-weight="800"><tspan x="58" dy="0">Overall Platform Flow</tspan></text>
  <text x="58" y="84" text-anchor="start" fill="#c8d5e6" font-family="Aptos, Segoe UI, sans-serif" font-size="16" font-weight="400"><tspan x="58" dy="0">How applicants, providers, administrators, and the system connect</tspan></text>
  <text x="1740" y="69" text-anchor="end" fill="#f6c744" font-family="Aptos, Segoe UI, sans-serif" font-size="12" font-weight="800" letter-spacing="2">SCHOLARSHIP PORTAL</text>
  
    <rect x="28" y="145" width="1744" height="155" fill="#f4f8fc" stroke="#d9e2ed"/>
    <rect x="28" y="145" width="150" height="155" fill="#edf2f8" stroke="#d9e2ed"/>
    <text x="103" y="179" text-anchor="middle" fill="#526985" font-family="Aptos, Segoe UI, sans-serif" font-size="12" font-weight="800" letter-spacing="2">SYSTEM</text>
    <rect x="28" y="300" width="1744" height="235" fill="#f8fbff" stroke="#d9e2ed"/>
    <rect x="28" y="300" width="150" height="235" fill="#edf2f8" stroke="#d9e2ed"/>
    <text x="103" y="334" text-anchor="middle" fill="#526985" font-family="Aptos, Segoe UI, sans-serif" font-size="12" font-weight="800" letter-spacing="2">APPLICANT</text>
    <rect x="28" y="535" width="1744" height="235" fill="#fffdf7" stroke="#d9e2ed"/>
    <rect x="28" y="535" width="150" height="235" fill="#edf2f8" stroke="#d9e2ed"/>
    <text x="103" y="569" text-anchor="middle" fill="#526985" font-family="Aptos, Segoe UI, sans-serif" font-size="12" font-weight="800" letter-spacing="2">PROVIDER</text>
    <rect x="28" y="770" width="1744" height="205" fill="#f7f9fc" stroke="#d9e2ed"/>
    <rect x="28" y="770" width="150" height="205" fill="#edf2f8" stroke="#d9e2ed"/>
    <text x="103" y="804" text-anchor="middle" fill="#526985" font-family="Aptos, Segoe UI, sans-serif" font-size="12" font-weight="800" letter-spacing="2">ADMIN</text>
  <g><path d="M 425 220 L 505 220" fill="none" stroke="#8193a9" stroke-width="2.2" stroke-linecap="round" stroke-linejoin="round" marker-end="url(#arrow)"/>
<path d="M 590 270 L 590 320 L 860 320 L 860 345" fill="none" stroke="#8193a9" stroke-width="2.2" stroke-linecap="round" stroke-linejoin="round" marker-end="url(#arrow)"/><g><rect x="551" y="295" width="78" height="22" rx="10" fill="#ffffff" stroke="#d7e0eb"/><text x="590" y="310" text-anchor="middle" fill="#4d6380" font-family="Aptos, Segoe UI, sans-serif" font-size="12" font-weight="700">Applicant</text></g>
<path d="M 590 270 L 620 550 L 860 550 L 860 582" fill="none" stroke="#8193a9" stroke-width="2.2" stroke-linecap="round" stroke-linejoin="round" marker-end="url(#arrow)"/><g><rect x="581" y="525" width="78" height="22" rx="10" fill="#ffffff" stroke="#d7e0eb"/><text x="620" y="540" text-anchor="middle" fill="#4d6380" font-family="Aptos, Segoe UI, sans-serif" font-size="12" font-weight="700">Provider</text></g>
<path d="M 590 270 L 650 790 L 1435 790 L 1435 818" fill="none" stroke="#8193a9" stroke-width="2.2" stroke-linecap="round" stroke-linejoin="round" marker-end="url(#arrow)"/><g><rect x="611" y="765" width="78" height="22" rx="10" fill="#ffffff" stroke="#d7e0eb"/><text x="650" y="780" text-anchor="middle" fill="#4d6380" font-family="Aptos, Segoe UI, sans-serif" font-size="12" font-weight="700">Admin</text></g>
<path d="M 975 397.5 L 1040 397.5" fill="none" stroke="#8193a9" stroke-width="2.2" stroke-linecap="round" stroke-linejoin="round" marker-end="url(#arrow)"/>
<path d="M 1260 397.5 L 1325 397.5" fill="none" stroke="#8193a9" stroke-width="2.2" stroke-linecap="round" stroke-linejoin="round" marker-end="url(#arrow)"/>
<path d="M 1545 397.5 L 1590 397.5" fill="none" stroke="#8193a9" stroke-width="2.2" stroke-linecap="round" stroke-linejoin="round" marker-end="url(#arrow)"/>
<path d="M 860 687 L 860 818" fill="none" stroke="#8193a9" stroke-width="2.2" stroke-linecap="round" stroke-linejoin="round" marker-end="url(#arrow)"/>
<path d="M 975 870.5 L 1005 870 L 1150 870 L 1150 707 L 1150 687" fill="none" stroke="#8193a9" stroke-width="2.2" stroke-linecap="round" stroke-linejoin="round" marker-end="url(#arrow)"/><g><rect x="1111" y="845" width="78" height="22" rx="10" fill="#ffffff" stroke="#d7e0eb"/><text x="1150" y="860" text-anchor="middle" fill="#4d6380" font-family="Aptos, Segoe UI, sans-serif" font-size="12" font-weight="700">Approved</text></g>
<path d="M 1150 687 L 1150 818" fill="none" stroke="#8193a9" stroke-width="2.2" stroke-linecap="round" stroke-linejoin="round" marker-end="url(#arrow)"/>
<path d="M 1260 870.5 L 1290 870 L 1435 870 L 1435 707 L 1435 687" fill="none" stroke="#8193a9" stroke-width="2.2" stroke-linecap="round" stroke-linejoin="round" marker-end="url(#arrow)"/><g><rect x="1396" y="845" width="78" height="22" rx="10" fill="#ffffff" stroke="#d7e0eb"/><text x="1435" y="860" text-anchor="middle" fill="#4d6380" font-family="Aptos, Segoe UI, sans-serif" font-size="12" font-weight="700">Published</text></g>
<path d="M 1435 582 L 1435 500 L 1675 500 L 1675 450" fill="none" stroke="#8193a9" stroke-width="2.2" stroke-linecap="round" stroke-linejoin="round" marker-end="url(#arrow)"/>
<path d="M 1675 450 L 1675 582" fill="none" stroke="#8193a9" stroke-width="2.2" stroke-linecap="round" stroke-linejoin="round" marker-end="url(#arrow)"/><g><rect x="1636" y="425" width="78" height="22" rx="10" fill="#ffffff" stroke="#d7e0eb"/><text x="1675" y="440" text-anchor="middle" fill="#4d6380" font-family="Aptos, Segoe UI, sans-serif" font-size="12" font-weight="700">Selected</text></g>
<path d="M 1675 687 L 1675 870 L 1565 870 L 1545 870.5" fill="none" stroke="#8193a9" stroke-width="2.2" stroke-linecap="round" stroke-linejoin="round" marker-end="url(#arrow)"/><g><rect x="1636" y="845" width="78" height="22" rx="10" fill="#ffffff" stroke="#d7e0eb"/><text x="1675" y="860" text-anchor="middle" fill="#4d6380" font-family="Aptos, Segoe UI, sans-serif" font-size="12" font-weight="700">Evidence</text></g></g>
  <g><g filter="url(#shadow)"><rect x="215" y="178" width="210" height="84" rx="24" fill="#0b1930" stroke="#0b1930" stroke-width="2"/></g><text x="320" y="210" text-anchor="middle" fill="#ffffff" font-family="Aptos, Segoe UI, sans-serif" font-size="17" font-weight="700"><tspan x="320" dy="0">Enter platform</tspan></text><text x="320" y="238" text-anchor="middle" fill="#d7e2f0" font-family="Aptos, Segoe UI, sans-serif" font-size="13.5" font-weight="400"><tspan x="320" dy="0">Register or sign in</tspan></text>
<g filter="url(#shadow)"><polygon points="590,170 675,220 590,270 505,220" fill="#fff5cf" stroke="#f5b700" stroke-width="2"/></g><text x="590" y="220" text-anchor="middle" fill="#071326" font-family="Aptos, Segoe UI, sans-serif" font-size="17" font-weight="700"><tspan x="590" dy="0">Account role?</tspan></text>
<g filter="url(#shadow)"><rect x="745" y="345" width="230" height="105" rx="12" fill="#ffffff" stroke="#cbd6e4" stroke-width="2"/></g><text x="860" y="377" text-anchor="middle" fill="#071326" font-family="Aptos, Segoe UI, sans-serif" font-size="17" font-weight="700"><tspan x="860" dy="0">Complete profile</tspan></text><text x="860" y="405" text-anchor="middle" fill="#4d6380" font-family="Aptos, Segoe UI, sans-serif" font-size="13.5" font-weight="400"><tspan x="860" dy="0">Add personal, school,</tspan><tspan x="860" dy="18">household, and supporting</tspan><tspan x="860" dy="18">information</tspan></text>
<g filter="url(#shadow)"><rect x="1040" y="345" width="220" height="105" rx="12" fill="#ffffff" stroke="#cbd6e4" stroke-width="2"/></g><text x="1150" y="377" text-anchor="middle" fill="#071326" font-family="Aptos, Segoe UI, sans-serif" font-size="17" font-weight="700"><tspan x="1150" dy="0">Find scholarships</tspan></text><text x="1150" y="405" text-anchor="middle" fill="#4d6380" font-family="Aptos, Segoe UI, sans-serif" font-size="13.5" font-weight="400"><tspan x="1150" dy="0">Browse, save, compare, and</tspan><tspan x="1150" dy="18">review program terms</tspan></text>
<g filter="url(#shadow)"><rect x="1325" y="345" width="220" height="105" rx="12" fill="#ffffff" stroke="#cbd6e4" stroke-width="2"/></g><text x="1435" y="377" text-anchor="middle" fill="#071326" font-family="Aptos, Segoe UI, sans-serif" font-size="17" font-weight="700"><tspan x="1435" dy="0">Apply</tspan></text><text x="1435" y="405" text-anchor="middle" fill="#4d6380" font-family="Aptos, Segoe UI, sans-serif" font-size="13.5" font-weight="400"><tspan x="1435" dy="0">System checks profile</tspan><tspan x="1435" dy="18">rules and required files</tspan></text>
<g filter="url(#shadow)"><rect x="1590" y="345" width="170" height="105" rx="12" fill="#dff8ee" stroke="#72d2b2" stroke-width="2"/><rect x="1596" y="351" width="158" height="93" rx="8" fill="none" stroke="#9edfc9"/></g><text x="1675" y="377" text-anchor="middle" fill="#075f46" font-family="Aptos, Segoe UI, sans-serif" font-size="17" font-weight="700"><tspan x="1675" dy="0">Receive result</tspan></text><text x="1675" y="405" text-anchor="middle" fill="#216b58" font-family="Aptos, Segoe UI, sans-serif" font-size="13.5" font-weight="400"><tspan x="1675" dy="0">Selected,</tspan><tspan x="1675" dy="18">waitlisted, or not</tspan><tspan x="1675" dy="18">selected</tspan></text>
<g filter="url(#shadow)"><rect x="745" y="582" width="230" height="105" rx="12" fill="#ffffff" stroke="#cbd6e4" stroke-width="2"/></g><text x="860" y="614" text-anchor="middle" fill="#071326" font-family="Aptos, Segoe UI, sans-serif" font-size="17" font-weight="700"><tspan x="860" dy="0">Verify provider</tspan></text><text x="860" y="642" text-anchor="middle" fill="#4d6380" font-family="Aptos, Segoe UI, sans-serif" font-size="13.5" font-weight="400"><tspan x="860" dy="0">Submit organization profile</tspan><tspan x="860" dy="18">and supporting evidence</tspan></text>
<g filter="url(#shadow)"><rect x="1040" y="582" width="220" height="105" rx="12" fill="#ffffff" stroke="#cbd6e4" stroke-width="2"/></g><text x="1150" y="614" text-anchor="middle" fill="#071326" font-family="Aptos, Segoe UI, sans-serif" font-size="17" font-weight="700"><tspan x="1150" dy="0">Create program</tspan></text><text x="1150" y="642" text-anchor="middle" fill="#4d6380" font-family="Aptos, Segoe UI, sans-serif" font-size="13.5" font-weight="400"><tspan x="1150" dy="0">Define support,</tspan><tspan x="1150" dy="18">eligibility, files,</tspan><tspan x="1150" dy="18">stages, and terms</tspan></text>
<g filter="url(#shadow)"><rect x="1325" y="582" width="220" height="105" rx="12" fill="#ffffff" stroke="#cbd6e4" stroke-width="2"/></g><text x="1435" y="614" text-anchor="middle" fill="#071326" font-family="Aptos, Segoe UI, sans-serif" font-size="17" font-weight="700"><tspan x="1435" dy="0">Review applicants</tspan></text><text x="1435" y="642" text-anchor="middle" fill="#4d6380" font-family="Aptos, Segoe UI, sans-serif" font-size="13.5" font-weight="400"><tspan x="1435" dy="0">Check records and complete</tspan><tspan x="1435" dy="18">configured stages</tspan></text>
<g filter="url(#shadow)"><rect x="1590" y="582" width="170" height="105" rx="12" fill="#dff8ee" stroke="#72d2b2" stroke-width="2"/><rect x="1596" y="588" width="158" height="93" rx="8" fill="none" stroke="#9edfc9"/></g><text x="1675" y="614" text-anchor="middle" fill="#075f46" font-family="Aptos, Segoe UI, sans-serif" font-size="17" font-weight="700"><tspan x="1675" dy="0">Monitor</tspan><tspan x="1675" dy="20">recipients</tspan></text><text x="1675" y="663" text-anchor="middle" fill="#216b58" font-family="Aptos, Segoe UI, sans-serif" font-size="13.5" font-weight="400"><tspan x="1675" dy="0">Release support and</tspan><tspan x="1675" dy="18">review continued</tspan><tspan x="1675" dy="18">requirements</tspan></text>
<g filter="url(#shadow)"><rect x="745" y="818" width="230" height="105" rx="12" fill="#eaf3fb" stroke="#9bbddb" stroke-width="2"/></g><text x="860" y="850" text-anchor="middle" fill="#174d7c" font-family="Aptos, Segoe UI, sans-serif" font-size="17" font-weight="700"><tspan x="860" dy="0">Review provider</tspan></text><text x="860" y="878" text-anchor="middle" fill="#416684" font-family="Aptos, Segoe UI, sans-serif" font-size="13.5" font-weight="400"><tspan x="860" dy="0">Approve, request changes, or</tspan><tspan x="860" dy="18">reject evidence</tspan></text>
<g filter="url(#shadow)"><rect x="1040" y="818" width="220" height="105" rx="12" fill="#eaf3fb" stroke="#9bbddb" stroke-width="2"/></g><text x="1150" y="850" text-anchor="middle" fill="#174d7c" font-family="Aptos, Segoe UI, sans-serif" font-size="17" font-weight="700"><tspan x="1150" dy="0">Review program</tspan></text><text x="1150" y="878" text-anchor="middle" fill="#416684" font-family="Aptos, Segoe UI, sans-serif" font-size="13.5" font-weight="400"><tspan x="1150" dy="0">Confirm disclosure,</tspan><tspan x="1150" dy="18">requirements, and</tspan><tspan x="1150" dy="18">readiness</tspan></text>
<g filter="url(#shadow)"><rect x="1325" y="818" width="220" height="105" rx="12" fill="#eaf3fb" stroke="#9bbddb" stroke-width="2"/></g><text x="1435" y="850" text-anchor="middle" fill="#174d7c" font-family="Aptos, Segoe UI, sans-serif" font-size="17" font-weight="700"><tspan x="1435" dy="0">Platform oversight</tspan></text><text x="1435" y="878" text-anchor="middle" fill="#416684" font-family="Aptos, Segoe UI, sans-serif" font-size="13.5" font-weight="400"><tspan x="1435" dy="0">Reports, releases,</tspan><tspan x="1435" dy="18">finance, accounts, and</tspan><tspan x="1435" dy="18">audit logs</tspan></text></g>
  <rect x="28" y="986" width="1744" height="58" rx="10" fill="#fff8dd" stroke="#f2d36b"/>
  <circle cx="58" cy="1015" r="12" fill="#f5b700"/>
  <text x="58" y="1020" text-anchor="middle" fill="#071326" font-family="Aptos, Segoe UI, sans-serif" font-size="16" font-weight="800">i</text>
  <text x="82" y="1020" text-anchor="start" fill="#425774" font-family="Aptos, Segoe UI, sans-serif" font-size="14" font-weight="400"><tspan x="82" dy="0">Matching supports pre-screening. Providers still review evidence and make selection decisions; administrators oversee trust and compliance.</tspan></text>
</svg>